<svg xmlns="http://www.w3.org/2000/svg" width="676" height="744" fill="none" viewBox="0 0 676 744"><path fill="#fff" d="M666.575 0H41V744H666.575C668.822 744 670.977 743.237 672.566 741.877C674.155 740.518 675.048 738.675 675.048 736.753V7.24675C675.048 5.3248 674.155 3.4816 672.566 2.12258C670.977 0.763562 668.822 4.1298e-05 666.575 0ZM76.3033 723.468C73.2311 723.468 70.2278 722.688 67.6734 721.229C65.1189 719.769 63.1279 717.694 61.9522 715.266C60.7765 712.838 60.4689 710.167 61.0683 707.59C61.6676 705.013 63.1471 702.645 65.3195 700.787C67.4919 698.929 70.2597 697.664 73.2729 697.151C76.2861 696.639 79.4093 696.902 82.2477 697.907C85.0861 698.913 87.5121 700.616 89.2189 702.801C90.9258 704.985 91.8368 707.554 91.8368 710.182C91.8368 711.927 91.435 713.654 90.6544 715.266C89.8737 716.878 88.7296 718.343 87.2871 719.576C85.8447 720.81 84.1323 721.789 82.2477 722.456C80.3631 723.124 78.3432 723.468 76.3033 723.468ZM76.3033 655.831C73.2311 655.831 70.2278 655.052 67.6734 653.592C65.1189 652.132 63.1279 650.057 61.9523 647.63C60.7766 645.202 60.469 642.531 61.0683 639.953C61.6677 637.376 63.1471 635.009 65.3195 633.151C67.4919 631.293 70.2597 630.028 73.2729 629.515C76.2861 629.002 79.4093 629.266 82.2477 630.271C85.0861 631.277 87.5121 632.979 89.2189 635.164C90.9258 637.349 91.8368 639.918 91.8368 642.545C91.8368 644.29 91.435 646.018 90.6544 647.63C89.8738 649.242 88.7296 650.706 87.2872 651.94C85.8447 653.174 84.1323 654.152 82.2477 654.82C80.3631 655.488 78.3432 655.831 76.3033 655.831ZM76.3033 588.195C73.2311 588.195 70.2278 587.416 67.6734 585.956C65.1189 584.496 63.1279 582.421 61.9523 579.993C60.7766 577.566 60.469 574.894 61.0683 572.317C61.6677 569.74 63.1471 567.373 65.3195 565.515C67.4919 563.657 70.2597 562.391 73.2729 561.879C76.2861 561.366 79.4093 561.629 82.2477 562.635C85.0861 563.64 87.5121 565.343 89.2189 567.528C90.9258 569.713 91.8368 572.281 91.8368 574.909C91.8368 576.654 91.435 578.381 90.6544 579.993C89.8737 581.605 88.7296 583.07 87.2871 584.304C85.8447 585.537 84.1323 586.516 82.2477 587.184C80.3631 587.851 78.3432 588.195 76.3033 588.195ZM76.3033 520.558C73.2311 520.558 70.2278 519.779 67.6734 518.319C65.1189 516.86 63.1279 514.785 61.9523 512.357C60.7766 509.929 60.469 507.258 61.0683 504.681C61.6677 502.104 63.1471 499.736 65.3195 497.878C67.4919 496.02 70.2597 494.755 73.2729 494.242C76.2861 493.73 79.4093 493.993 82.2477 494.998C85.0861 496.004 87.5121 497.707 89.2189 499.892C90.9258 502.076 91.8368 504.645 91.8368 507.273C91.8368 509.017 91.435 510.745 90.6544 512.357C89.8737 513.969 88.7296 515.433 87.2871 516.667C85.8447 517.901 84.1323 518.879 82.2477 519.547C80.3631 520.215 78.3432 520.558 76.3033 520.558ZM76.3033 452.922C73.2311 452.922 70.2278 452.143 67.6734 450.683C65.1189 449.223 63.1279 447.148 61.9523 444.721C60.7766 442.293 60.469 439.622 61.0683 437.044C61.6677 434.467 63.1471 432.1 65.3195 430.242C67.4919 428.384 70.2597 427.119 73.2729 426.606C76.2861 426.093 79.4093 426.356 82.2477 427.362C85.0861 428.368 87.5121 430.07 89.2189 432.255C90.9258 434.44 91.8368 437.009 91.8368 439.636C91.8368 441.381 91.435 443.109 90.6544 444.721C89.8737 446.333 88.7296 447.797 87.2871 449.031C85.8447 450.265 84.1323 451.243 82.2477 451.911C80.3631 452.578 78.3432 452.922 76.3033 452.922ZM76.3033 385.286C73.2311 385.286 70.2278 384.507 67.6734 383.047C65.1189 381.587 63.1279 379.512 61.9523 377.084C60.7766 374.657 60.469 371.985 61.0683 369.408C61.6677 366.831 63.1471 364.464 65.3195 362.606C67.4919 360.748 70.2597 359.482 73.2729 358.97C76.2861 358.457 79.4093 358.72 82.2477 359.726C85.0861 360.731 87.5121 362.434 89.2189 364.619C90.9258 366.804 91.8368 369.372 91.8368 372C91.8368 373.745 91.435 375.472 90.6544 377.084C89.8737 378.696 88.7296 380.161 87.2871 381.394C85.8447 382.628 84.1323 383.607 82.2477 384.274C80.3631 384.942 78.3432 385.286 76.3033 385.286ZM76.3033 317.649C73.2311 317.649 70.2278 316.87 67.6734 315.41C65.1189 313.95 63.1279 311.876 61.9523 309.448C60.7766 307.02 60.469 304.349 61.0683 301.772C61.6677 299.195 63.1471 296.827 65.3195 294.969C67.4919 293.111 70.2597 291.846 73.2729 291.333C76.2861 290.821 79.4093 291.084 82.2477 292.089C85.0861 293.095 87.5121 294.798 89.2189 296.982C90.9258 299.167 91.8368 301.736 91.8368 304.364C91.8368 306.108 91.435 307.836 90.6544 309.448C89.8737 311.06 88.7296 312.524 87.2871 313.758C85.8447 314.992 84.1323 315.97 82.2477 316.638C80.3631 317.306 78.3432 317.649 76.3033 317.649ZM76.3033 250.013C73.2311 250.013 70.2278 249.234 67.6734 247.774C65.1189 246.314 63.1279 244.239 61.9523 241.812C60.7766 239.384 60.469 236.713 61.0683 234.135C61.6677 231.558 63.1471 229.191 65.3195 227.333C67.4919 225.475 70.2597 224.21 73.2729 223.697C76.2861 223.184 79.4093 223.447 82.2477 224.453C85.0861 225.458 87.5121 227.161 89.2189 229.346C90.9258 231.531 91.8368 234.1 91.8368 236.727C91.8368 238.472 91.435 240.2 90.6544 241.812C89.8737 243.423 88.7296 244.888 87.2871 246.122C85.8447 247.355 84.1323 248.334 82.2477 249.002C80.3631 249.669 78.3432 250.013 76.3033 250.013ZM76.3033 182.377C73.2311 182.377 70.2278 181.597 67.6734 180.138C65.1189 178.678 63.1279 176.603 61.9523 174.175C60.7766 171.747 60.469 169.076 61.0683 166.499C61.6677 163.922 63.1471 161.555 65.3195 159.696C67.4919 157.838 70.2597 156.573 73.2729 156.061C76.2861 155.548 79.4093 155.811 82.2477 156.817C85.0861 157.822 87.5121 159.525 89.2189 161.71C90.9258 163.895 91.8368 166.463 91.8368 169.091C91.8368 170.836 91.435 172.563 90.6544 174.175C89.8737 175.787 88.7296 177.252 87.2871 178.485C85.8447 179.719 84.1323 180.698 82.2477 181.365C80.3631 182.033 78.3432 182.377 76.3033 182.377ZM76.3033 114.74C73.2311 114.74 70.2278 113.961 67.6734 112.501C65.1189 111.041 63.1279 108.966 61.9522 106.539C60.7765 104.111 60.4689 101.44 61.0683 98.8627C61.6676 96.2855 63.1471 93.9182 65.3195 92.0601C67.4918 90.2021 70.2597 88.9367 73.2729 88.4241C76.2861 87.9115 79.4093 88.1745 82.2477 89.1801C85.0861 90.1857 87.5121 91.8885 89.2189 94.0734C90.9258 96.2582 91.8368 98.8269 91.8368 101.455C91.8368 103.199 91.435 104.927 90.6544 106.539C89.8737 108.151 88.7296 109.615 87.2871 110.849C85.8447 112.083 84.1323 113.061 82.2477 113.729C80.3631 114.397 78.3432 114.74 76.3033 114.74ZM76.3033 47.1039C73.2311 47.1039 70.2278 46.3247 67.6734 44.8649C65.1189 43.405 63.1279 41.3301 61.9522 38.9024C60.7765 36.4748 60.4689 33.8034 61.0683 31.2263C61.6676 28.6491 63.1471 26.2818 65.3195 24.4238C67.4918 22.5657 70.2597 21.3004 73.2729 20.7877C76.2861 20.2751 79.4093 20.5382 82.2477 21.5438C85.0861 22.5493 87.5121 24.2522 89.2189 26.437C90.9258 28.6219 91.8368 31.1905 91.8368 33.8182C91.8368 35.5629 91.435 37.2905 90.6544 38.9024C89.8737 40.5143 88.7296 41.9789 87.2871 43.2126C85.8447 44.4463 84.1323 45.4249 82.2477 46.0926C80.3631 46.7603 78.3432 47.1039 76.3033 47.1039Z"/><path fill="#000" d="M156.641 118.578C156.547 116.391 156.469 114.125 156.406 111.781C156.344 109.438 156.234 107.078 156.078 104.703C155.953 102.297 155.75 99.9219 155.469 97.5781C155.219 95.2031 154.891 92.9219 154.484 90.7344C154.359 90.2344 154.25 89.9219 154.156 89.7969C154.062 89.6719 153.828 89.6094 153.453 89.6094C152.703 89.6094 151.984 89.7344 151.297 89.9844C150.609 90.2031 149.906 90.4531 149.188 90.7344C148.5 91.0156 147.812 91.2812 147.125 91.5312C146.438 91.75 145.703 91.8594 144.922 91.8594C144.516 91.8594 144.188 91.7969 143.938 91.6719C143.688 91.5156 143.562 91.2031 143.562 90.7344C143.562 90.5156 143.578 90.2969 143.609 90.0781C143.672 89.8594 143.859 89.7344 144.172 89.7031L153.359 87.4531C153.297 86.7656 153.344 86.3281 153.5 86.1406C153.688 85.9219 153.984 85.8125 154.391 85.8125C154.922 85.8125 155.375 85.9219 155.75 86.1406C156.125 86.3281 156.594 86.4219 157.156 86.4219C158.562 86.4219 159.953 86.3125 161.328 86.0938C162.703 85.8438 164.078 85.5781 165.453 85.2969C166.828 84.9844 168.188 84.7188 169.531 84.5C170.906 84.25 172.281 84.125 173.656 84.125V84.5938C173.656 84.8125 173.641 85.0469 173.609 85.2969C173.609 85.5469 173.547 85.7812 173.422 86C173.297 86.2188 173.141 86.3438 172.953 86.375C172.609 86.4062 172.094 86.4688 171.406 86.5625C170.75 86.625 169.984 86.7188 169.109 86.8438C168.266 86.9375 167.375 87.0469 166.438 87.1719C165.5 87.2656 164.594 87.375 163.719 87.5C162.844 87.5938 162.062 87.7031 161.375 87.8281C160.719 87.9219 160.219 87.9844 159.875 88.0156C159.594 88.0781 159.234 88.1719 158.797 88.2969C158.391 88.3906 157.984 88.5 157.578 88.625C157.172 88.7188 156.812 88.8125 156.5 88.9062C156.219 89 156.078 89.0625 156.078 89.0938V89.7031L158.797 117.969V118.578C158.766 118.641 158.688 118.719 158.562 118.812C158.469 118.875 158.328 118.938 158.141 119C157.953 119.031 157.734 119.031 157.484 119C157.234 118.938 156.953 118.797 156.641 118.578ZM167.562 111.922C167.562 111.297 167.562 110.469 167.562 109.438C167.594 108.375 167.672 107.25 167.797 106.062C167.922 104.844 168.109 103.609 168.359 102.359C168.609 101.109 168.969 99.9844 169.438 98.9844C169.906 97.9844 170.5 97.1719 171.219 96.5469C171.938 95.9219 172.828 95.6094 173.891 95.6094C175.359 95.6094 176.531 96.0156 177.406 96.8281C178.312 97.6406 179 98.6562 179.469 99.875C179.969 101.062 180.297 102.344 180.453 103.719C180.641 105.062 180.734 106.281 180.734 107.375C180.734 108.562 180.562 109.844 180.219 111.219C179.875 112.594 179.344 113.859 178.625 115.016C177.906 116.172 177 117.141 175.906 117.922C174.844 118.672 173.562 119.047 172.062 119.047C171.094 119.047 170.312 118.828 169.719 118.391C169.125 117.922 168.672 117.344 168.359 116.656C168.078 115.969 167.875 115.203 167.75 114.359C167.625 113.516 167.562 112.703 167.562 111.922ZM169.156 111.359C169.156 111.953 169.172 112.578 169.203 113.234C169.234 113.859 169.328 114.453 169.484 115.016C169.641 115.578 169.922 116.031 170.328 116.375C170.734 116.719 171.328 116.891 172.109 116.891C173.484 116.891 174.609 116.578 175.484 115.953C176.391 115.328 177.109 114.531 177.641 113.562C178.172 112.562 178.531 111.469 178.719 110.281C178.938 109.094 179.047 107.953 179.047 106.859C179.047 106.172 178.984 105.281 178.859 104.188C178.766 103.094 178.547 102.031 178.203 101C177.859 99.9688 177.359 99.0938 176.703 98.375C176.047 97.625 175.188 97.25 174.125 97.25C173.375 97.25 172.719 97.5469 172.156 98.1406C171.625 98.7344 171.172 99.5 170.797 100.438C170.422 101.375 170.125 102.406 169.906 103.531C169.719 104.656 169.562 105.734 169.438 106.766C169.312 107.797 169.234 108.734 169.203 109.578C169.172 110.422 169.156 111.016 169.156 111.359ZM211.953 117.641C211.953 117.547 212.25 117.391 212.844 117.172C213.469 116.953 214.219 116.672 215.094 116.328C216 115.953 216.969 115.5 218 114.969C219.062 114.438 220.031 113.797 220.906 113.047C221.812 112.297 222.562 111.422 223.156 110.422C223.781 109.422 224.094 108.281 224.094 107C224.094 106.125 223.828 105.156 223.297 104.094C222.766 103 222.078 101.922 221.234 100.859C220.391 99.7969 219.406 98.7656 218.281 97.7656C217.188 96.7344 216.078 95.8281 214.953 95.0469C213.828 94.2656 212.719 93.6406 211.625 93.1719C210.562 92.7031 209.625 92.4688 208.812 92.4688C208.812 94.3125 208.891 96.1562 209.047 98C209.234 99.8125 209.422 101.641 209.609 103.484C209.797 105.328 209.969 107.172 210.125 109.016C210.312 110.828 210.406 112.672 210.406 114.547C210.406 114.953 210.359 115.281 210.266 115.531C210.203 115.781 209.875 116.031 209.281 116.281L208.766 115.766L206.562 91.8125C206.5 91.8125 206.344 91.75 206.094 91.625C205.875 91.4688 205.641 91.3125 205.391 91.1562C205.141 90.9688 204.906 90.7656 204.688 90.5469C204.469 90.3281 204.359 90.125 204.359 89.9375C204.359 89.75 204.5 89.5156 204.781 89.2344C205.094 88.9531 205.438 88.6875 205.812 88.4375C206.188 88.1562 206.547 87.9219 206.891 87.7344C207.234 87.5156 207.484 87.4062 207.641 87.4062C208.109 87.4062 208.391 87.5156 208.484 87.7344C208.609 87.9531 208.672 88.2188 208.672 88.5312C208.672 88.8125 208.688 89.125 208.719 89.4688C208.75 89.7812 208.938 90.0156 209.281 90.1719C210.375 90.7969 211.531 91.4531 212.75 92.1406C213.969 92.7969 215.188 93.5312 216.406 94.3438C217.656 95.125 218.828 95.9688 219.922 96.875C221.047 97.7812 222.031 98.7812 222.875 99.875C223.719 100.938 224.391 102.094 224.891 103.344C225.391 104.562 225.641 105.906 225.641 107.375C225.641 108.75 225.266 110.141 224.516 111.547C223.766 112.922 222.812 114.172 221.656 115.297C220.5 116.391 219.203 117.297 217.766 118.016C216.359 118.703 214.984 119.047 213.641 119.047C213.234 119.047 212.844 118.922 212.469 118.672C212.125 118.422 211.953 118.078 211.953 117.641ZM227.75 111.922C227.75 111.297 227.75 110.469 227.75 109.438C227.781 108.375 227.859 107.25 227.984 106.062C228.109 104.844 228.297 103.609 228.547 102.359C228.797 101.109 229.156 99.9844 229.625 98.9844C230.094 97.9844 230.688 97.1719 231.406 96.5469C232.125 95.9219 233.016 95.6094 234.078 95.6094C235.547 95.6094 236.719 96.0156 237.594 96.8281C238.5 97.6406 239.188 98.6562 239.656 99.875C240.156 101.062 240.484 102.344 240.641 103.719C240.828 105.062 240.922 106.281 240.922 107.375C240.922 108.562 240.75 109.844 240.406 111.219C240.062 112.594 239.531 113.859 238.812 115.016C238.094 116.172 237.188 117.141 236.094 117.922C235.031 118.672 233.75 119.047 232.25 119.047C231.281 119.047 230.5 118.828 229.906 118.391C229.312 117.922 228.859 117.344 228.547 116.656C228.266 115.969 228.062 115.203 227.938 114.359C227.812 113.516 227.75 112.703 227.75 111.922ZM229.344 111.359C229.344 111.953 229.359 112.578 229.391 113.234C229.422 113.859 229.516 114.453 229.672 115.016C229.828 115.578 230.109 116.031 230.516 116.375C230.922 116.719 231.516 116.891 232.297 116.891C233.672 116.891 234.797 116.578 235.672 115.953C236.578 115.328 237.297 114.531 237.828 113.562C238.359 112.562 238.719 111.469 238.906 110.281C239.125 109.094 239.234 107.953 239.234 106.859C239.234 106.172 239.172 105.281 239.047 104.188C238.953 103.094 238.734 102.031 238.391 101C238.047 99.9688 237.547 99.0938 236.891 98.375C236.234 97.625 235.375 97.25 234.312 97.25C233.562 97.25 232.906 97.5469 232.344 98.1406C231.812 98.7344 231.359 99.5 230.984 100.438C230.609 101.375 230.312 102.406 230.094 103.531C229.906 104.656 229.75 105.734 229.625 106.766C229.5 107.797 229.422 108.734 229.391 109.578C229.359 110.422 229.344 111.016 229.344 111.359ZM264.875 117.922C264.906 117.672 264.938 117.266 264.969 116.703C265.031 116.141 265.094 115.547 265.156 114.922C265.219 114.297 265.266 113.703 265.297 113.141C265.359 112.547 265.391 112.141 265.391 111.922C265.391 111.422 265.391 110.656 265.391 109.625C265.422 108.562 265.438 107.375 265.438 106.062V97.7188C265.438 96.4062 265.422 95.2344 265.391 94.2031C265.391 93.1406 265.391 92.3438 265.391 91.8125C265.516 91.5938 265.625 91.4531 265.719 91.3906C265.812 91.3281 265.969 91.2969 266.188 91.2969H266.516C266.609 91.3594 266.766 91.4688 266.984 91.625C267.203 91.75 267.312 91.8125 267.312 91.8125V116.141C267.406 116.141 267.562 116.156 267.781 116.188C268 116.219 268.234 116.25 268.484 116.281C268.766 116.281 269.016 116.281 269.234 116.281C269.484 116.281 269.641 116.281 269.703 116.281C270.047 116.25 270.547 116.188 271.203 116.094C271.891 116 272.672 115.906 273.547 115.812C274.422 115.719 275.328 115.625 276.266 115.531C277.203 115.406 278.094 115.297 278.938 115.203C279.812 115.078 280.578 114.969 281.234 114.875C281.922 114.781 282.438 114.703 282.781 114.641C283.219 114.422 283.594 114.281 283.906 114.219C284.219 114.125 284.594 114.078 285.031 114.078C285.438 114.078 285.703 114.219 285.828 114.5C285.984 114.781 286.062 115.094 286.062 115.438C286.062 115.719 286 115.969 285.875 116.188C285.781 116.375 285.656 116.594 285.5 116.844C283.906 116.688 282.297 116.703 280.672 116.891C279.078 117.078 277.484 117.344 275.891 117.688C274.297 118 272.719 118.297 271.156 118.578C269.594 118.859 268.047 119 266.516 119C266.297 119 266 118.875 265.625 118.625C265.25 118.375 265 118.141 264.875 117.922ZM286.906 97.6719C287.094 97.6719 287.297 97.7344 287.516 97.8594C287.766 97.9844 287.922 98.1562 287.984 98.375L291.266 114.641C291.641 115.203 291.906 115.656 292.062 116C292.25 116.344 292.344 116.797 292.344 117.359C292.344 117.641 292.297 118 292.203 118.438C292.109 118.844 291.891 119.047 291.547 119.047H291.359C291.297 119.047 291.266 119.031 291.266 119C291.203 118.969 291.109 118.906 290.984 118.812L290.281 118.109C290.188 118.016 290.141 117.953 290.141 117.922L286.906 99.4062V97.6719ZM286.109 87.1719C286.797 87.1719 287.297 87.2656 287.609 87.4531C287.953 87.6094 288.125 88.0156 288.125 88.6719C288.125 88.8906 288.109 89.1562 288.078 89.4688C288.047 89.7812 287.859 89.9844 287.516 90.0781C286.891 89.8281 286.5 89.4219 286.344 88.8594C286.188 88.2969 286.109 87.7344 286.109 87.1719ZM296.375 117.406C296.375 117.031 296.406 116.719 296.469 116.469C296.531 116.188 296.625 116 296.75 115.906C296.906 115.781 297.078 115.781 297.266 115.906C297.484 116 297.75 116.25 298.062 116.656C298.625 116.656 299.281 116.625 300.031 116.562C300.781 116.5 301.562 116.391 302.375 116.234C303.188 116.078 303.984 115.875 304.766 115.625C305.578 115.375 306.281 115.047 306.875 114.641C307.5 114.203 308 113.703 308.375 113.141C308.75 112.547 308.938 111.859 308.938 111.078C308.938 110.297 308.578 109.719 307.859 109.344C307.141 108.969 306.219 108.688 305.094 108.5C304 108.281 302.812 108.078 301.531 107.891C300.281 107.672 299.109 107.359 298.016 106.953C296.922 106.516 296 105.906 295.25 105.125C294.531 104.312 294.172 103.188 294.172 101.75C294.172 100.75 294.344 99.9062 294.688 99.2188C295.031 98.5312 295.609 97.8906 296.422 97.2969C296.766 97.0156 297.375 96.5781 298.25 95.9844C299.125 95.3594 300.047 94.7031 301.016 94.0156C302.016 93.2969 302.953 92.6406 303.828 92.0469C304.703 91.4219 305.312 90.9844 305.656 90.7344C305.719 90.7344 305.797 90.7344 305.891 90.7344C306.016 90.7031 306.109 90.6875 306.172 90.6875C306.953 90.6875 307.344 91.0625 307.344 91.8125C307.344 92.1562 307.062 92.5312 306.5 92.9375C305.938 93.3125 305.219 93.7344 304.344 94.2031C303.5 94.6719 302.578 95.1719 301.578 95.7031C300.609 96.2344 299.688 96.8281 298.812 97.4844C297.969 98.1094 297.266 98.7969 296.703 99.5469C296.141 100.266 295.859 101.047 295.859 101.891C295.859 102.797 296.078 103.453 296.516 103.859C296.984 104.266 297.672 104.609 298.578 104.891C298.953 104.984 299.594 105.172 300.5 105.453C301.438 105.703 302.422 105.984 303.453 106.297C304.516 106.578 305.5 106.844 306.406 107.094C307.344 107.344 308 107.516 308.375 107.609C309.188 108.047 309.844 108.531 310.344 109.062C310.875 109.562 311.141 110.266 311.141 111.172C311.141 112.047 310.906 112.844 310.438 113.562C310 114.281 309.406 114.938 308.656 115.531C307.938 116.094 307.094 116.609 306.125 117.078C305.188 117.516 304.234 117.891 303.266 118.203C302.297 118.484 301.344 118.703 300.406 118.859C299.5 118.984 298.688 119.047 297.969 119.047C297.281 119.047 296.844 118.953 296.656 118.766C296.469 118.547 296.375 118.094 296.375 117.406ZM322.25 104.328C321.562 104.328 320.875 104.422 320.188 104.609C319.5 104.797 318.812 105 318.125 105.219C317.469 105.406 316.797 105.594 316.109 105.781C315.453 105.938 314.766 106.016 314.047 106.016C313.641 106.016 313.312 105.938 313.062 105.781C312.812 105.625 312.688 105.312 312.688 104.844C312.688 104.469 312.781 104.219 312.969 104.094C313.188 103.938 313.438 103.859 313.719 103.859C314.031 103.828 314.344 103.828 314.656 103.859C315 103.891 315.266 103.875 315.453 103.812C315.703 103.75 316.156 103.641 316.812 103.484C317.5 103.328 318.219 103.172 318.969 103.016C319.719 102.859 320.422 102.703 321.078 102.547C321.766 102.391 322.234 102.266 322.484 102.172C322.484 102.078 322.484 101.922 322.484 101.703C322.516 101.453 322.531 101.203 322.531 100.953C322.562 100.672 322.578 100.422 322.578 100.203V99.6875C322.578 98.75 322.516 97.8438 322.391 96.9688C322.266 96.0625 322.125 95.1562 321.969 94.25C321.844 93.3438 321.719 92.4375 321.594 91.5312C321.469 90.625 321.406 89.7188 321.406 88.8125C321.406 88.5 321.438 88.2031 321.5 87.9219C321.594 87.6094 321.844 87.4531 322.25 87.4531C322.406 87.4531 322.562 87.5 322.719 87.5938C322.906 87.6562 323.016 87.7969 323.047 88.0156L324.688 101.562C324.719 101.594 324.75 101.609 324.781 101.609H324.922C325.234 101.609 325.719 101.531 326.375 101.375C327.031 101.219 327.766 101.031 328.578 100.812C329.391 100.594 330.25 100.359 331.156 100.109C332.094 99.8594 332.984 99.6406 333.828 99.4531C334.672 99.2344 335.438 99.0781 336.125 98.9844C336.812 98.8594 337.344 98.8438 337.719 98.9375C337.844 98.9688 338.047 99.125 338.328 99.4062C338.609 99.6562 338.781 99.8438 338.844 99.9688C338.906 100.281 338.641 100.594 338.047 100.906C337.453 101.188 336.672 101.469 335.703 101.75C334.766 102 333.719 102.234 332.562 102.453C331.406 102.672 330.297 102.875 329.234 103.062C328.203 103.219 327.312 103.375 326.562 103.531C325.812 103.656 325.359 103.75 325.203 103.812V104.75C325.203 105.156 325.188 105.609 325.156 106.109C325.156 106.578 325.156 107.031 325.156 107.469V108.406C325.156 110 325.266 111.562 325.484 113.094C325.703 114.594 325.812 116.109 325.812 117.641C325.812 117.859 325.75 118.047 325.625 118.203C325.5 118.328 325.344 118.453 325.156 118.578C324.969 118.672 324.781 118.766 324.594 118.859C324.406 118.922 324.266 118.969 324.172 119C323.922 117.656 323.734 116.438 323.609 115.344C323.516 114.219 323.438 113.109 323.375 112.016C323.344 110.922 323.297 109.766 323.234 108.547C323.203 107.297 323.141 105.891 323.047 104.328H322.25Z"/><g filter="url(#filter0_d)"><path fill="#F9B1F5" d="M632.14 78C638.35 78 643.39 83.03 643.39 89.25C643.39 93.52 643.39 95.07 643.39 99.34C643.39 105.55 638.35 110.59 632.14 110.59C626.71 110.59 621.68 110.59 616.25 110.59C610.04 110.59 605 105.55 605 99.34C605 95.07 605 93.52 605 89.25C605 83.03 610.04 78 616.25 78C621.68 78 626.71 78 632.14 78Z"/><path fill="#F6D8AD" d="M633.79 497.66L643.39 476.29H624.2H605L614.6 497.66L624.2 519.02L633.79 497.66Z"/><path fill="#F9E41F" d="M605 99.72H643.39V476.29H605V99.72Z"/><path fill="#B9B9B9" d="M605 98.33H643.39V122.29H605V98.33Z"/></g><g filter="url(#filter1_d)"><path fill="#F2ABEE" d="M435.689 607C440.681 607 444.733 611.382 444.733 616.78C444.733 634.624 444.733 678.376 444.733 696.22C444.733 701.618 440.681 706 435.689 706C425.749 706 404.984 706 395.044 706C390.052 706 386 701.618 386 696.22C386 678.376 386 634.624 386 616.78C386 611.382 390.052 607 395.044 607C404.984 607 425.749 607 435.689 607Z"/><path fill="#F9B1F5" d="M643.843 607C648.347 607 652 610.95 652 615.821C652 633.857 652 679.133 652 697.169C652 702.05 648.347 706 643.843 706C600.219 706 477.513 706 433.889 706C429.385 706 425.732 702.05 425.732 697.169C425.732 679.133 425.732 633.857 425.732 615.821C425.732 610.95 429.385 607 433.889 607C477.513 607 600.219 607 643.843 607Z"/></g><path fill="#2F2E41" d="M40.9519 47.0649C36.7603 47.0649 0 46.8957 0 41.026C0 35.1563 36.7603 34.987 40.9519 34.987V37.4026C19.3005 37.4026 5.26135 39.4755 3.00043 41.026C5.26135 42.5764 19.3005 44.6493 40.9519 44.6493C62.555 44.6493 76.5796 42.5852 78.8878 41.0366C77.7893 40.3732 73.3022 38.9826 61.2665 38.0926L61.5095 35.6865C81.9037 37.1939 81.9037 39.978 81.9037 41.026C81.9037 46.8957 45.1434 47.0649 40.9519 47.0649Z"/><path fill="#2F2E41" d="M40.9519 113.494C36.7603 113.494 0 113.324 0 107.455C0 101.585 36.7603 101.416 40.9519 101.416V103.831C19.3005 103.831 5.26135 105.904 3.00043 107.455C5.26135 109.005 19.3005 111.078 40.9519 111.078C62.555 111.078 76.5796 109.014 78.8878 107.465C77.7893 106.802 73.3022 105.411 61.2665 104.521L61.5095 102.115C81.9037 103.623 81.9037 106.407 81.9037 107.455C81.9037 113.324 45.1434 113.494 40.9519 113.494Z"/><path fill="#2F2E41" d="M40.9519 181.13C36.7603 181.13 0 180.961 0 175.091C0 169.221 36.7603 169.052 40.9519 169.052V171.468C19.3005 171.468 5.26135 173.54 3.00043 175.091C5.26135 176.641 19.3005 178.714 40.9519 178.714C62.555 178.714 76.5796 176.65 78.8878 175.102C77.7893 174.438 73.3022 173.047 61.2665 172.158L61.5095 169.751C81.9037 171.259 81.9037 174.043 81.9037 175.091C81.9037 180.961 45.1434 181.13 40.9519 181.13Z"/><path fill="#2F2E41" d="M40.9519 248.766C36.7603 248.766 0 248.597 0 242.727C0 236.858 36.7603 236.688 40.9519 236.688V239.104C19.3005 239.104 5.26135 241.177 3.00043 242.727C5.26135 244.278 19.3005 246.351 40.9519 246.351C62.555 246.351 76.5796 244.286 78.8878 242.738C77.7893 242.074 73.3022 240.684 61.2665 239.794L61.5095 237.388C81.9037 238.895 81.9037 241.679 81.9037 242.727C81.9037 248.597 45.1434 248.766 40.9519 248.766Z"/><path fill="#2F2E41" d="M40.9519 316.403C36.7603 316.403 0 316.233 0 310.364C0 304.494 36.7603 304.325 40.9519 304.325V306.74C19.3005 306.74 5.26135 308.813 3.00043 310.364C5.26135 311.914 19.3005 313.987 40.9519 313.987C62.555 313.987 76.5796 311.923 78.8878 310.374C77.7893 309.711 73.3022 308.32 61.2665 307.43L61.5095 305.024C81.9037 306.532 81.9037 309.316 81.9037 310.364C81.9037 316.233 45.1434 316.403 40.9519 316.403Z"/><path fill="#2F2E41" d="M40.9519 384.039C36.7603 384.039 0 383.87 0 378C0 372.13 36.7603 371.961 40.9519 371.961V374.377C19.3005 374.377 5.26135 376.45 3.00043 378C5.26135 379.55 19.3005 381.623 40.9519 381.623C62.555 381.623 76.5796 379.559 78.8878 378.011C77.7893 377.347 73.3022 375.957 61.2665 375.067L61.5095 372.66C81.9037 374.168 81.9037 376.952 81.9037 378C81.9037 383.87 45.1434 384.039 40.9519 384.039Z"/><path fill="#2F2E41" d="M40.9519 451.675C36.7603 451.675 0 451.506 0 445.636C0 439.767 36.7603 439.597 40.9519 439.597V442.013C19.3005 442.013 5.26135 444.086 3.00043 445.636C5.26135 447.187 19.3005 449.26 40.9519 449.26C62.555 449.26 76.5796 447.196 78.8878 445.647C77.7893 444.984 73.3022 443.593 61.2665 442.703L61.5095 440.297C81.9037 441.804 81.9037 444.588 81.9037 445.636C81.9037 451.506 45.1434 451.675 40.9519 451.675Z"/><path fill="#2F2E41" d="M40.9519 519.312C36.7603 519.312 0 519.142 0 513.273C0 507.403 36.7603 507.234 40.9519 507.234V509.649C19.3005 509.649 5.26135 511.722 3.00043 513.273C5.26135 514.823 19.3005 516.896 40.9519 516.896C62.555 516.896 76.5796 514.832 78.8878 513.283C77.7893 512.62 73.3022 511.229 61.2665 510.339L61.5095 507.933C81.9037 509.441 81.9037 512.225 81.9037 513.273C81.9037 519.142 45.1434 519.312 40.9519 519.312Z"/><path fill="#2F2E41" d="M40.9519 586.948C36.7603 586.948 0 586.779 0 580.909C0 575.039 36.7603 574.87 40.9519 574.87V577.286C19.3005 577.286 5.26135 579.359 3.00043 580.909C5.26135 582.46 19.3005 584.532 40.9519 584.532C62.555 584.532 76.5796 582.468 78.8878 580.92C77.7893 580.256 73.3022 578.866 61.2665 577.976L61.5095 575.57C81.9037 577.077 81.9037 579.861 81.9037 580.909C81.9037 586.779 45.1434 586.948 40.9519 586.948Z"/><path fill="#2F2E41" d="M40.9519 654.584C36.7603 654.584 0 654.415 0 648.545C0 642.676 36.7603 642.507 40.9519 642.507V644.922C19.3005 644.922 5.26135 646.995 3.00043 648.545C5.26135 650.096 19.3005 652.169 40.9519 652.169C62.555 652.169 76.5796 650.105 78.8878 648.556C77.7893 647.893 73.3022 646.502 61.2665 645.612L61.5095 643.206C81.9037 644.713 81.9037 647.497 81.9037 648.545C81.9037 654.415 45.1434 654.584 40.9519 654.584Z"/><path fill="#2F2E41" d="M40.9519 722.221C36.7603 722.221 0 722.051 0 716.182C0 710.312 36.7603 710.143 40.9519 710.143V712.558C19.3005 712.558 5.26135 714.631 3.00043 716.182C5.26135 717.732 19.3005 719.805 40.9519 719.805C62.555 719.805 76.5796 717.741 78.8878 716.192C77.7893 715.529 73.3022 714.138 61.2665 713.249L61.5095 710.842C81.9037 712.35 81.9037 715.134 81.9037 716.182C81.9037 722.051 45.1434 722.221 40.9519 722.221Z"/><defs><filter id="filter0_d" width="46.39" height="449.02" x="601" y="78" color-interpolation-filters="sRGB" filterUnits="userSpaceOnUse"><feFlood flood-opacity="0" result="BackgroundImageFix"/><feColorMatrix in="SourceAlpha" result="hardAlpha" type="matrix" values="0 0 0 0 0 0 0 0 0 0 0 0 0 0 0 0 0 0 127 0"/><feOffset dy="4"/><feGaussianBlur stdDeviation="2"/><feComposite in2="hardAlpha" operator="out"/><feColorMatrix type="matrix" values="0 0 0 0 0 0 0 0 0 0 0 0 0 0 0 0 0 0 0.25 0"/><feBlend in2="BackgroundImageFix" mode="normal" result="effect1_dropShadow"/><feBlend in="SourceGraphic" in2="effect1_dropShadow" mode="normal" result="shape"/></filter><filter id="filter1_d" width="274" height="107" x="382" y="607" color-interpolation-filters="sRGB" filterUnits="userSpaceOnUse"><feFlood flood-opacity="0" result="BackgroundImageFix"/><feColorMatrix in="SourceAlpha" result="hardAlpha" type="matrix" values="0 0 0 0 0 0 0 0 0 0 0 0 0 0 0 0 0 0 127 0"/><feOffset dy="4"/><feGaussianBlur stdDeviation="2"/><feComposite in2="hardAlpha" operator="out"/><feColorMatrix type="matrix" values="0 0 0 0 0 0 0 0 0 0 0 0 0 0 0 0 0 0 0.25 0"/><feBlend in2="BackgroundImageFix" mode="normal" result="effect1_dropShadow"/><feBlend in="SourceGraphic" in2="effect1_dropShadow" mode="normal" result="shape"/></filter></defs></svg>